<?xml version="1.0" encoding="UTF-8" standalone="no"?>
<svg
   version="1.1"
   width="5560"
   height="794"
   id="svg896"
   sodipodi:docname="Logo4.svg"
   inkscape:version="1.1.1 (c3084ef, 2021-09-22)"
   xmlns:inkscape="http://www.inkscape.org/namespaces/inkscape"
   xmlns:sodipodi="http://sodipodi.sourceforge.net/DTD/sodipodi-0.dtd"
   xmlns="http://www.w3.org/2000/svg"
   xmlns:svg="http://www.w3.org/2000/svg">
  <defs
     id="defs900">
    <inkscape:path-effect
       effect="powerclip"
       id="path-effect1432"
       is_visible="true"
       lpeversion="1"
       inverse="true"
       flatten="false"
       hide_clip="false"
       message="Use fill-rule evenodd on &lt;b&gt;fill and stroke&lt;/b&gt; dialog if no flatten result after convert clip to paths." />
    <inkscape:path-effect
       effect="powerclip"
       id="path-effect75375"
       is_visible="true"
       lpeversion="1"
       inverse="true"
       flatten="false"
       hide_clip="false"
       message="Use fill-rule evenodd on &lt;b&gt;fill and stroke&lt;/b&gt; dialog if no flatten result after convert clip to paths." />
    <inkscape:path-effect
       effect="powerclip"
       id="path-effect74883"
       is_visible="true"
       lpeversion="1"
       inverse="true"
       flatten="false"
       hide_clip="false"
       message="Use fill-rule evenodd on &lt;b&gt;fill and stroke&lt;/b&gt; dialog if no flatten result after convert clip to paths." />
    <inkscape:path-effect
       effect="powerclip"
       id="path-effect73949"
       is_visible="true"
       lpeversion="1"
       inverse="true"
       flatten="false"
       hide_clip="false"
       message="Use fill-rule evenodd on &lt;b&gt;fill and stroke&lt;/b&gt; dialog if no flatten result after convert clip to paths." />
    <clipPath
       clipPathUnits="userSpaceOnUse"
       id="clipPath73945">
      <ellipse
         style="display:none;fill:#ffff00;fill-opacity:0;stroke:#ffff00;stroke-width:5.22288;-inkscape-stroke:none;stop-color:#000000"
         id="ellipse73947"
         cx="-295.3125"
         cy="934.37506"
         rx="325.655"
         ry="333.65332"
         d="M 30.342499,934.37506 A 325.655,333.65332 0 0 1 -295.3125,1268.0284 325.655,333.65332 0 0 1 -620.9675,934.37506 325.655,333.65332 0 0 1 -295.3125,600.72174 325.655,333.65332 0 0 1 30.342499,934.37506 Z" />
      <path
         id="lpe_path-effect73949"
         style="fill:#ffff00;fill-opacity:0;stroke:#ffff00;stroke-width:5.22288;-inkscape-stroke:none;stop-color:#000000"
         class="powerclip"
         d="M -696.07429,532.80086 H 105.44929 V 1335.9493 H -696.07429 Z M 30.342499,934.37506 A 325.655,333.65332 0 0 0 -295.3125,600.72174 325.655,333.65332 0 0 0 -620.9675,934.37506 325.655,333.65332 0 0 0 -295.3125,1268.0284 325.655,333.65332 0 0 0 30.342499,934.37506 Z" />
    </clipPath>
    <clipPath
       clipPathUnits="userSpaceOnUse"
       id="clipPath73945-1">
      <ellipse
         style="display:none;fill:#ffff00;fill-opacity:0;stroke:#ffff00;stroke-width:5.22288;-inkscape-stroke:none;stop-color:#000000"
         id="ellipse73947-4"
         cx="-295.3125"
         cy="934.37506"
         rx="325.655"
         ry="333.65332"
         d="M 30.342499,934.37506 A 325.655,333.65332 0 0 1 -295.3125,1268.0284 325.655,333.65332 0 0 1 -620.9675,934.37506 325.655,333.65332 0 0 1 -295.3125,600.72174 325.655,333.65332 0 0 1 30.342499,934.37506 Z" />
      <path
         id="lpe_path-effect73949-7"
         style="fill:#ffff00;fill-opacity:0;stroke:#ffff00;stroke-width:5.22288;-inkscape-stroke:none;stop-color:#000000"
         class="powerclip"
         d="M -696.07429,532.80086 H 105.44929 V 1335.9493 H -696.07429 Z M 30.342499,934.37506 A 325.655,333.65332 0 0 0 -295.3125,600.72174 325.655,333.65332 0 0 0 -620.9675,934.37506 325.655,333.65332 0 0 0 -295.3125,1268.0284 325.655,333.65332 0 0 0 30.342499,934.37506 Z" />
    </clipPath>
    <clipPath
       clipPathUnits="userSpaceOnUse"
       id="clipath_lpe_path-effect74883">
      <ellipse
         style="display:none;fill:#ffff00;fill-opacity:0;stroke:#ffff00;stroke-width:5.22288;-inkscape-stroke:none;stop-color:#000000"
         id="ellipse74885"
         cx="-295.3125"
         cy="934.37506"
         rx="325.655"
         ry="333.65332" />
    </clipPath>
    <clipPath
       clipPathUnits="userSpaceOnUse"
       id="clipPath73945-6">
      <ellipse
         style="display:none;fill:#ffff00;fill-opacity:0;stroke:#ffff00;stroke-width:5.22288;-inkscape-stroke:none;stop-color:#000000"
         id="ellipse73947-1"
         cx="-295.3125"
         cy="934.37506"
         rx="325.655"
         ry="333.65332"
         d="M 30.342499,934.37506 A 325.655,333.65332 0 0 1 -295.3125,1268.0284 325.655,333.65332 0 0 1 -620.9675,934.37506 325.655,333.65332 0 0 1 -295.3125,600.72174 325.655,333.65332 0 0 1 30.342499,934.37506 Z" />
      <path
         id="lpe_path-effect73949-76"
         style="fill:#ffff00;fill-opacity:0;stroke:#ffff00;stroke-width:5.22288;-inkscape-stroke:none;stop-color:#000000"
         class="powerclip"
         d="M -696.07429,532.80086 H 105.44929 V 1335.9493 H -696.07429 Z M 30.342499,934.37506 A 325.655,333.65332 0 0 0 -295.3125,600.72174 325.655,333.65332 0 0 0 -620.9675,934.37506 325.655,333.65332 0 0 0 -295.3125,1268.0284 325.655,333.65332 0 0 0 30.342499,934.37506 Z" />
    </clipPath>
    <clipPath
       clipPathUnits="userSpaceOnUse"
       id="clipath_lpe_path-effect75375">
      <ellipse
         style="display:none;fill:#ffff00;fill-opacity:0;stroke:#ffff00;stroke-width:5.22288;-inkscape-stroke:none;stop-color:#000000"
         id="ellipse75377"
         cx="-295.3125"
         cy="934.37506"
         rx="325.655"
         ry="333.65332" />
    </clipPath>
    <clipPath
       clipPathUnits="userSpaceOnUse"
       id="clipPath1416">
      <g
         id="g1430"
         style="display:none">
        <path
           d="m 609.56406,172.30187 c 12.4836,9.4582 24.35796,20.01986 34.23578,31.81404 0.6041,0.70687 1.20818,1.41377 1.83058,2.14207 4.39531,5.2558 8.47406,10.70402 12.50843,16.19838 0.51032,0.68614 1.02064,1.37229 1.54641,2.07923 4.19896,5.78278 7.5342,11.8441 10.79182,18.10552 -0.84138,0.0118 -1.68275,0.024 -2.54964,0.0362 -3.1957,0.0483 -6.39093,0.1117 -9.58625,0.17891 -1.3691,0.0269 -2.73828,0.05 -4.10754,0.069 -18.39932,0.26048 -36.13799,3.71029 -53.11737,10.37192 -0.55165,0.21502 -1.1033,0.43005 -1.67167,0.65159 -16.19883,6.40463 -31.10898,15.11546 -44.56888,25.57835 -0.74965,0.57452 -0.74965,0.57452 -1.51446,1.16068 -7.77976,5.96796 -15.20307,12.26146 -22.5606,18.66505 -1.76063,1.52747 -3.52947,3.04647 -5.30114,4.56312 -0.88561,0.75857 -0.88561,0.75857 -1.78912,1.5325 -1.11602,0.95555 -2.2326,1.91055 -3.34984,2.86489 -2.60888,2.23857 -5.16728,4.50649 -7.66818,6.84765 -2.7073,2.515 -5.54793,4.843 -8.45605,7.15784 -3.1461,2.53517 -6.17909,5.18017 -9.21763,7.82384 -0.65788,0.57102 -1.31578,1.14207 -1.99361,1.73041 -4.56914,3.98061 -9.02428,8.04681 -13.44653,12.1658 -2.28296,2.07963 -4.65772,4.01211 -7.09656,5.93312 -2.90211,2.34964 -5.71299,4.78567 -8.53116,7.22027 -4.94691,4.27195 -9.91888,8.51521 -14.92257,12.73073 -2.85425,2.40589 -5.69223,4.82786 -8.53116,7.24911 -4.07257,3.47106 -8.17571,6.90789 -12.30695,10.31969 -2.58262,2.14584 -5.14218,4.3139 -7.70096,6.48384 -4.52908,3.83475 -9.12272,7.58762 -13.77977,11.28949 -1.68775,1.34202 -3.37461,2.68494 -5.06103,4.02839 -0.58065,0.46241 -1.16132,0.92479 -1.7596,1.40121 -3.44341,2.75044 -6.83588,5.54077 -10.18957,8.38377 -3.90232,3.29867 -7.94454,6.39063 -12.06381,9.4552 -2.33931,1.7797 -4.59116,3.62075 -6.83255,5.50405 -3.75274,3.14916 -7.62995,6.11581 -11.57404,9.05817 -2.99851,2.26834 -5.94097,4.59087 -8.87852,6.9257 -4.50758,3.57881 -9.05938,7.09744 -13.67902,10.55345 -1.52016,1.13774 -3.03492,2.28164 -4.54346,3.43242 -12.22517,9.31657 -24.83621,18.13685 -37.75368,26.61936 -1.66009,1.0907 -3.31667,2.18576 -4.97159,3.28315 -3.09237,2.04841 -6.19532,4.08282 -9.30228,6.11242 -0.63389,0.4146 -1.26779,0.82917 -1.9209,1.25634 -11.44979,7.47589 -23.05261,14.72486 -34.76376,21.84814 -2.16955,1.32031 -4.33459,2.64663 -6.49909,3.97395 -23.54557,14.34446 -47.84498,25.78883 -75.0853,32.75859 -1.53888,0.39466 -1.53888,0.39466 -3.10886,0.79727 -8.32506,1.94536 -16.81405,2.59518 -25.34684,3.30116 -27.7919,-37.47297 -47.415022,-77.47919 -56.911442,-122.13311 -0.15856,-0.74422 -0.31713,-1.48844 -0.48049,-2.25521 -3.05492,-14.85093 -3.55496,-29.31658 -3.37255,-44.35832 0.0243,-2.34376 0.0317,-4.68747 0.0389,-7.03132 0.10149,-33.06204 0.10149,-33.06204 2.0357,-38.97957 3.49663,1.30279 5.62907,3.4127 8.22548,5.89149 3.31254,3.12155 6.67787,6.10928 10.28878,8.93648 1.93758,1.56517 3.78992,3.19915 5.647863,4.84366 25.770289,22.58978 54.640419,35.82038 90.518709,35.47781 8.28983,-0.20632 16.05684,-1.51536 24.04077,-3.50928 1.08096,-0.25886 2.16189,-0.51775 3.27559,-0.78445 24.02517,-6.59194 45.80741,-19.77092 65.25544,-34.02614 1.69134,-1.23536 3.39576,-2.4533 5.10577,-3.66659 5.46063,-3.88657 10.71299,-7.88096 15.79096,-12.19281 2.3256,-1.92346 4.7293,-3.7272 7.16603,-5.52967 3.63886,-2.71262 6.96275,-5.55828 10.22279,-8.64832 2.16359,-2.00263 4.46184,-3.8301 6.78395,-5.67377 3.82344,-3.07769 7.5351,-6.27046 11.26878,-9.43997 1.38852,-1.17494 2.78244,-2.34418 4.1783,-3.51169 4.73231,-3.96409 9.37766,-7.976 13.8284,-12.21204 1.65533,-1.48487 3.32751,-2.85066 5.08535,-4.22649 5.81591,-4.65383 11.13551,-9.80002 16.5482,-14.84399 2.18338,-2.03462 4.36984,-4.06633 6.55817,-6.0964 0.7284,-0.68163 0.7284,-0.68163 1.47152,-1.37703 2.53639,-2.35247 5.12808,-4.59447 7.85508,-6.75899 4.02934,-3.21395 7.76908,-6.66285 11.51498,-10.1532 0.7231,-0.66964 1.44619,-1.33929 2.19119,-2.02921 2.29151,-2.12221 4.58009,-4.24703 6.86796,-6.37258 3.01708,-2.80302 6.03718,-5.60322 9.05914,-8.40178 0.68011,-0.6337 1.3602,-1.26742 2.06093,-1.92033 3.67857,-3.40608 7.4323,-6.66888 11.39437,-9.79408 1.93041,-1.54376 3.71769,-3.19393 5.49664,-4.8842 2.94328,-2.74541 5.96457,-5.32734 9.14251,-7.83825 1.95854,-1.5765 3.86949,-3.19511 5.77505,-4.82565 5.37678,-4.59638 10.91235,-8.9434 16.65049,-13.15619 1.36353,-1.01911 1.36353,-1.01911 2.75456,-2.05882 19.94181,-14.80306 41.36545,-27.94995 65.71702,-35.6467 0.58144,-0.19322 1.16288,-0.38646 1.76195,-0.58554 20.93947,-6.77824 47.50415,-4.202 65.37573,8.1164 z"
           fill="#fefefe"
           id="path1418"
           style="stroke-width:0.853756" />
        <path
           d="m 457.33748,531.84633 c 6.97864,5.23832 13.65092,10.66953 19.81873,16.77072 3.99853,3.62595 3.75164,3.41595 8.21801,7.56202 3.41989,3.55728 6.88973,6.9214 10.28647,10.32919 4.30716,4.34308 8.41229,8.76654 12.34563,13.42089 15.95301,18.62625 33.43393,37.52859 53.98247,51.63562 l 2.31742,1.64033 c 14.51685,10.01537 30.37386,16.54635 47.79215,20.41633 -9.21048,8.79397 -19.04679,16.38319 -29.52886,23.7533 l -1.69046,1.19464 c -36.61386,25.76597 -81.35987,41.45658 -126.26795,48.00867 l -3.1681,0.47138 c -18.05065,2.56793 -35.96806,3.25843 -54.21184,3.29309 l -3.09815,0.0155 c -68.17485,0.22531 -136.46633,-21.36427 -190.06983,-61.46675 l -1.76605,-1.3073 c -9.44148,-7.00895 -18.26727,-14.52874 -26.86799,-22.44601 l -1.9181,-1.76212 c -1.88482,-1.73847 -3.76049,-3.48523 -5.63191,-5.23662 l -1.74965,-1.62502 -1.60241,-1.51647 -1.41365,-1.32966 c -1.1065,-1.25511 -1.1065,-1.25511 -2.00132,-3.8001 l 2.37686,-0.5037 c 50.03153,-11.18331 93.37634,-38.31499 134.52969,-66.51458 1.29424,-0.88066 2.58871,-1.761 3.88336,-2.6411 17.91034,-12.19738 35.57607,-24.6924 53.00679,-37.49939 34.91272,-25.60988 69.60647,-15.17336 102.42869,9.13701 z"
           fill="#fefefe"
           id="path1420"
           sodipodi:nodetypes="cccccccccccccccccccccccccccc"
           style="stroke-width:0.871264" />
        <path
           d="m 638.91829,318.91254 c 0.53437,-0.10454 1.06861,-0.20986 1.61913,-0.31794 6.32526,-1.23562 12.6318,-2.41361 19.03484,-3.03961 0.53181,-0.056 1.06358,-0.11195 1.61148,-0.16966 2.30273,-0.1752 28.17168,-4.4274 29.91601,-3.60399 7.78739,19.33074 7.35404,40.26607 8.29806,61.46294 -0.48053,0.10494 -0.96105,0.20989 -1.45612,0.31802 -41.64226,9.1359 -72.90867,27.49617 -100.2165,50.94752 -1.7649,1.51044 -3.56952,2.99404 -5.39868,4.47374 -6.61494,5.38414 -12.95692,10.86511 -19.08157,16.47031 -1.84054,1.67502 -3.72888,3.32082 -5.647,4.96134 -1.37802,1.20049 -2.71744,2.41555 -4.0542,3.63381 -2.75496,2.51031 -5.54825,4.96077 -8.55326,7.35899 -3.85266,3.09934 -7.12788,6.34113 -10.44263,9.66592 -1.04637,1.02536 -2.09442,2.05012 -3.14527,3.07379 -0.37627,0.3677 -0.75251,0.73541 -1.14019,1.11426 -0.24649,0.24091 -0.493,0.48181 -0.74698,0.73002 -2.55621,-0.18811 -4.2651,-0.68651 -6.3442,-1.53026 -2.70888,-1.06427 -5.46302,-2.00466 -8.34231,-2.88984 -1.98602,-0.63173 -3.93141,-1.29906 -5.87685,-1.97405 -20.85949,-7.22461 -42.32796,-9.94468 -67.35359,-9.51061 -0.10808,-0.46379 -0.21646,-0.92752 -0.32795,-1.4053 0.89657,-0.81328 0.89657,-0.81328 2.28368,-1.80033 3.67173,-2.75815 6.80974,-5.69476 9.9982,-8.67376 2.50857,-2.34004 5.07717,-4.64023 7.72945,-6.91852 5.2419,-4.51564 10.19597,-9.16676 15.20129,-13.78367 3.67195,-3.38566 7.37634,-6.75705 11.09463,-10.12334 1.03281,-0.9357 2.06402,-1.87206 3.09473,-2.80866 3.2941,-2.99332 6.59424,-5.98374 9.91161,-8.96721 3.4902,-3.14111 6.92441,-6.30476 10.35291,-9.47166 2.51797,-2.32342 5.06523,-4.63115 7.64343,-6.9291 3.43984,-3.08694 6.66485,-6.24363 9.88379,-9.41852 2.32789,-2.28851 4.71743,-4.51053 7.3155,-6.68645 1.3794,-1.20121 2.61593,-2.43852 3.86716,-3.69164 2.54278,-2.51695 5.33957,-4.83728 8.26993,-7.18306 1.8338,-1.50291 3.5465,-3.03414 5.25289,-4.59417 13.30839,-11.99087 30.17649,-23.49445 49.38203,-31.28897 0.45718,-0.18607 0.91432,-0.37215 1.38534,-0.56386 8.04957,-3.17334 16.28293,-5.17285 24.98121,-6.86652 z"
           fill="#fefefe"
           id="path1422"
           style="stroke-width:0.601563"
           sodipodi:nodetypes="sccccccccccccccscccccccccccsccccccccccss" />
        <path
           d="m 531.82544,98.292976 c -1.91284,1.51949 -3.22979,1.772454 -5.80874,2.390734 -30.06377,7.43958 -55.5459,19.76668 -79.65694,35.66822 -1.22485,0.80199 -2.465,1.58915 -3.70743,2.37388 -5.14867,3.2549 -9.9447,6.76184 -14.70876,10.36244 -2.57798,1.94722 -5.17567,3.85588 -7.87276,5.69891 -3.536,2.43711 -6.80873,5.05922 -10.08754,7.71122 -3.2668,2.64231 -6.52228,5.25321 -10.05926,7.66883 -4.13266,2.82298 -7.88303,5.93593 -11.67717,9.04011 l -1.6556,1.33637 -1.48399,1.21142 -1.46502,1.13526 -1.88296,1.34469 c -1.08226,0.84474 -0.91364,0.66615 -2.16114,1.52182 -2.87501,1.94205 -5.58716,3.98149 -8.24344,6.1091 l -1.18063,0.94426 c -1.20818,0.96836 -2.41428,1.93833 -3.61968,2.90886 -4.6139,3.71493 -9.20842,7.39382 -14.20926,10.78513 -3.09691,2.17291 -5.91319,4.58569 -8.7618,6.9607 l -1.41999,1.15545 -1.25426,1.03907 c -1.48296,0.94077 -2.66106,1.20183 -4.51364,1.46145 -3.76299,-3.9049 -6.80567,-8.00726 -9.80165,-12.29805 -4.21344,-5.98211 -8.83814,-11.70898 -13.62181,-17.40892 l -1.01145,-1.21135 c -9.24486,-11.05063 -19.67089,-21.34216 -31.05755,-31.05108 l -1.99175,-1.70944 c -20.60528,-17.06824 -46.46856,-24.44634 -75.74041,-25.02612 -2.5057,-0.0395 -5.01113,-0.0726 -7.51716,-0.0965 1.37295,-3.04508 3.3397,-4.67954 6.43392,-6.70802 l 1.50461,-1.00087 c 11.37434,-7.45575 23.64335,-13.77234 36.29461,-19.76209 l 1.68819,-0.80794 C 272.93206,85.11141 309.15023,76.40877 345.14153,72.21957 l 1.74977,-0.2039 c 59.75655,-6.88234 133.34934,-0.35097 184.93414,26.277356 z"
           fill="#fefefe"
           id="path1424"
           sodipodi:nodetypes="ccccccscccccccccsccccccccccccccccccc"
           style="stroke-width:0.716795" />
        <ellipse
           style="fill:#ffffff;fill-opacity:1;stroke-width:65.2399;-inkscape-stroke:none;stop-color:#000000"
           id="ellipse1426"
           cx="636.72534"
           cy="526.44958"
           rx="47.298069"
           ry="47.541733"
           d="m 684.02341,526.44958 a 47.298069,47.541733 0 0 1 -47.29807,47.54174 47.298069,47.541733 0 0 1 -47.29807,-47.54174 47.298069,47.541733 0 0 1 47.29807,-47.54173 47.298069,47.541733 0 0 1 47.29807,47.54173 z" />
        <ellipse
           style="fill:#ffffff;fill-opacity:1;stroke-width:96.5195;-inkscape-stroke:none;stop-color:#000000"
           id="ellipse1428"
           cx="185.64787"
           cy="260.54364"
           rx="69.5177"
           ry="70.799194"
           d="m 255.16557,260.54364 a 69.5177,70.799194 0 0 1 -69.5177,70.79919 69.5177,70.799194 0 0 1 -69.5177,-70.79919 69.5177,70.799194 0 0 1 69.5177,-70.79919 69.5177,70.799194 0 0 1 69.5177,70.79919 z" />
      </g>
      <path
         id="lpe_path-effect1432"
         class="powerclip"
         d="M -4.4670172,-4.2465045 H 797.05657 V 798.902 H -4.4670172 Z M 609.56406,172.30187 l 5e-5,1.3e-4 c -17.87158,-12.3184 -44.43626,-14.89464 -65.37573,-8.1164 -0.59907,0.19908 -1.18051,0.39232 -1.76195,0.58554 -24.35157,7.69675 -45.77521,20.84364 -65.71702,35.6467 -1.39103,1.03971 -1.39103,1.03971 -2.75456,2.05882 -5.73814,4.21279 -11.27371,8.55981 -16.65049,13.15619 -1.90556,1.63054 -3.81651,3.24915 -5.77505,4.82565 -3.17794,2.51091 -6.19923,5.09284 -9.14251,7.83825 -1.77895,1.69027 -3.56623,3.34044 -5.49664,4.8842 -3.96207,3.1252 -7.7158,6.388 -11.39437,9.79408 -0.70073,0.65291 -1.38082,1.28663 -2.06093,1.92033 -3.02196,2.79856 -6.04206,5.59876 -9.05914,8.40178 -2.28787,2.12555 -4.57645,4.25037 -6.86796,6.37258 -0.745,0.68992 -1.46809,1.35957 -2.19119,2.02921 -3.7459,3.49035 -7.48564,6.93925 -11.51498,10.1532 -2.727,2.16452 -5.31869,4.40652 -7.85508,6.75899 -0.74312,0.6954 -0.74312,0.6954 -1.47152,1.37703 -2.18833,2.03007 -4.37479,4.06178 -6.55817,6.0964 -5.41269,5.04397 -10.73229,10.19016 -16.5482,14.84399 -1.75784,1.37583 -3.43002,2.74162 -5.08535,4.22649 -4.45074,4.23604 -9.09609,8.24795 -13.8284,12.21204 -1.39586,1.16751 -2.78978,2.33675 -4.1783,3.51169 -3.73368,3.16951 -7.44534,6.36228 -11.26878,9.43997 -2.32211,1.84367 -4.62036,3.67114 -6.78395,5.67377 -3.26004,3.09004 -6.58393,5.9357 -10.22279,8.64832 -2.43673,1.80247 -4.84043,3.60621 -7.16603,5.52967 -5.07797,4.31185 -10.33033,8.30624 -15.79096,12.19281 -1.71001,1.21329 -3.41443,2.43123 -5.10577,3.66659 -19.44803,14.25522 -41.23027,27.4342 -65.25544,34.02614 -1.1137,0.2667 -2.19463,0.52559 -3.27559,0.78445 -7.98393,1.99392 -15.75094,3.30296 -24.04077,3.50928 -35.87829,0.34257 -64.74842,-12.88803 -90.518709,-35.47781 -1.857943,-1.64451 -3.710283,-3.27849 -5.647863,-4.84366 -3.61091,-2.8272 -6.97624,-5.81493 -10.28878,-8.93648 -2.59641,-2.47879 -4.72885,-4.5887 -8.22548,-5.89149 -1.93421,5.91753 -1.93421,5.91753 -2.0357,38.97957 -0.0072,2.34385 -0.0146,4.68756 -0.0389,7.03132 -0.18241,15.04174 0.31763,29.50739 3.37255,44.35832 0.16336,0.76677 0.32193,1.51099 0.48049,2.25521 9.49642,44.65392 29.119542,84.66014 56.911442,122.13311 8.53279,-0.70598 17.02178,-1.3558 25.34684,-3.30116 1.56998,-0.40261 1.56998,-0.40261 3.10886,-0.79727 27.24032,-6.96976 51.53973,-18.41413 75.0853,-32.75859 2.1645,-1.32732 4.32954,-2.65364 6.49909,-3.97395 11.71115,-7.12328 23.31397,-14.37225 34.76376,-21.84814 0.65311,-0.42717 1.28701,-0.84174 1.9209,-1.25634 3.10696,-2.0296 6.20991,-4.06401 9.30228,-6.11242 1.65492,-1.09739 3.3115,-2.19245 4.97159,-3.28315 12.91747,-8.48251 25.52851,-17.30279 37.75368,-26.61936 1.50854,-1.15078 3.0233,-2.29468 4.54346,-3.43242 4.61964,-3.45601 9.17144,-6.97464 13.67902,-10.55345 2.93755,-2.33483 5.88001,-4.65736 8.87852,-6.9257 3.94409,-2.94236 7.8213,-5.90901 11.57404,-9.05817 2.24139,-1.8833 4.49324,-3.72435 6.83255,-5.50405 4.11927,-3.06457 8.16149,-6.15653 12.06381,-9.4552 3.35369,-2.843 6.74616,-5.63333 10.18957,-8.38377 0.59828,-0.47642 1.17895,-0.9388 1.7596,-1.40121 1.68642,-1.34345 3.37328,-2.68637 5.06103,-4.02839 4.65705,-3.70187 9.25069,-7.45474 13.77977,-11.28949 2.55878,-2.16994 5.11834,-4.338 7.70096,-6.48384 4.13124,-3.4118 8.23438,-6.84863 12.30695,-10.31969 2.83893,-2.42125 5.67691,-4.84322 8.53116,-7.24911 5.00369,-4.21552 9.97566,-8.45878 14.92257,-12.73073 2.81817,-2.4346 5.62905,-4.87063 8.53116,-7.22027 2.43884,-1.92101 4.8136,-3.85349 7.09656,-5.93312 4.42225,-4.11899 8.87739,-8.18519 13.44653,-12.1658 0.67783,-0.58834 1.33573,-1.15939 1.99361,-1.73041 3.03854,-2.64367 6.07153,-5.28867 9.21763,-7.82384 2.90812,-2.31484 5.74875,-4.64284 8.45605,-7.15784 2.5009,-2.34116 5.0593,-4.60908 7.66818,-6.84765 1.11724,-0.95434 2.23382,-1.90934 3.34984,-2.86489 0.90351,-0.77393 0.90351,-0.77393 1.78912,-1.5325 1.77167,-1.51665 3.54051,-3.03565 5.30114,-4.56312 7.35753,-6.40359 14.78084,-12.69709 22.5606,-18.66505 0.76481,-0.58616 0.76481,-0.58616 1.51446,-1.16068 13.4599,-10.46289 28.37005,-19.17372 44.56888,-25.57835 0.56837,-0.22154 1.12002,-0.43657 1.67167,-0.65159 16.97938,-6.66163 34.71805,-10.11144 53.11737,-10.37192 1.36926,-0.019 2.73844,-0.0421 4.10754,-0.069 3.19532,-0.0672 6.39055,-0.13061 9.58625,-0.17891 0.86689,-0.0122 1.70826,-0.0244 2.54964,-0.0362 -3.25762,-6.26142 -6.59286,-12.32274 -10.79182,-18.10552 -0.52577,-0.70694 -1.03609,-1.39309 -1.54641,-2.07923 -4.03437,-5.49436 -8.11312,-10.94258 -12.50843,-16.19838 -0.6224,-0.7283 -1.22648,-1.4352 -1.83058,-2.14207 -9.87782,-11.79418 -21.75218,-22.35584 -34.23578,-31.81404 z M 457.33748,531.84633 v -1.3e-4 c -32.82222,-24.31037 -67.51597,-34.74689 -102.42869,-9.13701 -17.43072,12.80699 -35.09645,25.30201 -53.00679,37.49939 -1.29465,0.8801 -2.58912,1.76044 -3.88336,2.6411 -41.15335,28.19959 -84.49816,55.33127 -134.52969,66.51458 l -2.37686,0.5037 c 0.89482,2.54499 0.89482,2.54499 2.00132,3.8001 l 1.41365,1.32966 1.60241,1.51647 1.74965,1.62502 c 1.87142,1.75139 3.74709,3.49815 5.63191,5.23662 l 1.9181,1.76212 c 8.60072,7.91727 17.42651,15.43706 26.86799,22.44601 l 1.76605,1.3073 c 53.6035,40.10248 121.89498,61.69206 190.06983,61.46675 l 3.09815,-0.0155 c 18.24378,-0.0347 36.16119,-0.72516 54.21184,-3.29309 l 3.1681,-0.47138 c 44.90808,-6.55209 89.65409,-22.2427 126.26795,-48.00867 l 1.69046,-1.19464 c 10.48207,-7.37011 20.31838,-14.95933 29.52886,-23.7533 -17.41829,-3.86998 -33.2753,-10.40096 -47.79215,-20.41633 l -2.31742,-1.64033 c -20.54854,-14.10703 -38.02946,-33.00937 -53.98247,-51.63562 -3.93334,-4.65435 -8.03847,-9.07781 -12.34563,-13.42089 -3.39674,-3.40779 -6.86658,-6.77191 -10.28647,-10.32919 -4.46637,-4.14607 -4.21948,-3.93607 -8.21801,-7.56202 -6.16781,-6.10119 -12.84009,-11.5324 -19.81873,-16.77072 z M 638.91829,318.91254 v -4e-5 c -8.69828,1.69367 -16.93164,3.69318 -24.98121,6.86652 -0.47102,0.19171 -0.92816,0.37779 -1.38534,0.56386 -19.20554,7.79452 -36.07364,19.2981 -49.38203,31.28897 -1.70639,1.56003 -3.41909,3.09126 -5.25289,4.59417 -2.93036,2.34578 -5.72715,4.66611 -8.26993,7.18306 -1.25123,1.25312 -2.48776,2.49043 -3.86716,3.69164 -2.59807,2.17592 -4.98761,4.39794 -7.3155,6.68645 -3.21894,3.17489 -6.44395,6.33158 -9.88379,9.41852 -2.5782,2.29795 -5.12546,4.60568 -7.64343,6.9291 -3.4285,3.1669 -6.86271,6.33055 -10.35291,9.47166 -3.31737,2.98347 -6.61751,5.97389 -9.91161,8.96721 -1.03071,0.9366 -2.06192,1.87296 -3.09473,2.80866 -3.71829,3.36629 -7.42268,6.73768 -11.09463,10.12334 -5.00532,4.61691 -9.95939,9.26803 -15.20129,13.78367 -2.65228,2.27829 -5.22088,4.57848 -7.72945,6.91852 -3.18846,2.979 -6.32647,5.91561 -9.9982,8.67376 -1.38711,0.98705 -1.38711,0.98705 -2.28368,1.80033 0.11149,0.47778 0.21987,0.94151 0.32795,1.4053 25.02563,-0.43407 46.4941,2.286 67.35359,9.51061 1.94544,0.67499 3.89083,1.34232 5.87685,1.97405 2.87929,0.88518 5.63343,1.82557 8.34231,2.88984 2.0791,0.84375 3.78799,1.34215 6.3442,1.53026 0.25398,-0.24821 0.50049,-0.48911 0.74698,-0.73002 0.38768,-0.37885 0.76392,-0.74656 1.14019,-1.11426 1.05085,-1.02367 2.0989,-2.04843 3.14527,-3.07379 3.31475,-3.32479 6.58997,-6.56658 10.44263,-9.66592 3.00501,-2.39822 5.7983,-4.84868 8.55326,-7.35899 1.33676,-1.21826 2.67618,-2.43332 4.0542,-3.63381 1.91812,-1.64052 3.80646,-3.28632 5.647,-4.96134 6.12465,-5.6052 12.46663,-11.08617 19.08157,-16.47031 1.82916,-1.4797 3.63378,-2.9633 5.39868,-4.47374 27.30783,-23.45135 58.57424,-41.81162 100.2165,-50.94752 0.49507,-0.10813 0.97559,-0.21308 1.45612,-0.31802 -0.94402,-21.19687 -0.51067,-42.1322 -8.29806,-61.46294 -1.74433,-0.82341 -27.61328,3.42879 -29.91601,3.60399 -0.5479,0.0577 -1.07967,0.11366 -1.61148,0.16966 -6.40304,0.626 -12.70958,1.80399 -19.03484,3.03961 -0.55052,0.10808 -1.08476,0.2134 -1.61913,0.31794 z M 531.82544,98.292976 v 5e-5 C 480.24064,71.6647 406.64785,65.13333 346.8913,72.01567 l -1.74977,0.2039 c -35.9913,4.1892 -72.20947,12.89184 -103.56655,27.82095 l -1.68819,0.80794 c -12.65126,5.98975 -24.92027,12.30634 -36.29461,19.76209 l -1.50461,1.00087 c -3.09422,2.02848 -5.06097,3.66294 -6.43392,6.70802 2.50603,0.0239 5.01146,0.057 7.51716,0.0965 29.27185,0.57978 55.13513,7.95788 75.74041,25.02612 l 1.99175,1.70944 c 11.38666,9.70892 21.81269,20.00045 31.05755,31.05108 l 1.01145,1.21135 c 4.78367,5.69994 9.40837,11.42681 13.62181,17.40892 2.99598,4.29079 6.03866,8.39315 9.80165,12.29805 1.85258,-0.25962 3.03068,-0.52068 4.51364,-1.46145 l 1.25426,-1.03907 1.41999,-1.15545 c 2.84861,-2.37501 5.66489,-4.78779 8.7618,-6.9607 5.00084,-3.39131 9.59536,-7.0702 14.20926,-10.78513 1.2054,-0.97053 2.4115,-1.9405 3.61968,-2.90886 l 1.18063,-0.94426 c 2.65628,-2.12761 5.36843,-4.16705 8.24344,-6.1091 1.2475,-0.85567 1.07888,-0.67708 2.16114,-1.52182 l 1.88296,-1.34469 1.46502,-1.13526 1.48399,-1.21142 1.6556,-1.33637 c 3.79414,-3.10418 7.54451,-6.21713 11.67717,-9.04011 3.53698,-2.41562 6.79246,-5.02652 10.05926,-7.66883 3.27881,-2.652 6.55154,-5.27411 10.08754,-7.71122 2.69709,-1.84303 5.29478,-3.75169 7.87276,-5.69891 4.76406,-3.6006 9.56009,-7.10754 14.70876,-10.36244 1.24243,-0.78473 2.48258,-1.57189 3.70743,-2.37388 24.11104,-15.90154 49.59317,-28.22864 79.65694,-35.66822 2.57895,-0.61828 3.8959,-0.871244 5.80874,-2.390734 z M 684.02341,526.44958 a 47.298069,47.541733 0 0 0 -47.29807,-47.54173 47.298069,47.541733 0 0 0 -47.29807,47.54173 47.298069,47.541733 0 0 0 47.29807,47.54174 47.298069,47.541733 0 0 0 47.29807,-47.54174 z M 255.16557,260.54364 a 69.5177,70.799194 0 0 0 -69.5177,-70.79919 69.5177,70.799194 0 0 0 -69.5177,70.79919 69.5177,70.799194 0 0 0 69.5177,70.79919 69.5177,70.799194 0 0 0 69.5177,-70.79919 z" />
    </clipPath>
  </defs>
  <sodipodi:namedview
     id="namedview898"
     pagecolor="#ffffff"
     bordercolor="#666666"
     borderopacity="1.0"
     inkscape:pageshadow="2"
     inkscape:pageopacity="0.0"
     inkscape:pagecheckerboard="true"
     showgrid="false"
     inkscape:zoom="0.11075547"
     inkscape:cx="1589.0862"
     inkscape:cy="270.86697"
     inkscape:window-width="1352"
     inkscape:window-height="815"
     inkscape:window-x="0"
     inkscape:window-y="35"
     inkscape:window-maximized="0"
     inkscape:current-layer="svg896" />
  <path
     d="m 449.80657,4.5777895 3.3418,0.42188 c 23.25044,2.9734102 46.22226,8.2483405 68.41455,15.8144505 2.34045,0.79662 4.68813,1.5692 7.03662,2.34179 18.01767,6.02136 35.44072,13.65102 52.28564,22.42432 1.9973,1.03697 4.0038,2.05457 6.01123,3.07178 26.37891,13.50531 51.10142,30.87704 72.91016,50.925776 1.32922,1.171344 2.66238,2.338244 4,3.499994 l 1.95312,1.71094 c 1.44281,1.26108 2.89127,2.5157 4.34375,3.76562 6.5615,5.74653 12.43082,11.96478 18.26124,18.43311 1.33331,1.47057 2.68564,2.92385 4.03955,4.37549 6.58263,7.08336 12.5544,14.52561 18.40234,22.21484 l 1.6416,2.14111 c 9.27824,12.14225 17.59738,24.69755 25.3584,37.85889 l 1.31006,2.21045 c 21.89355,37.25805 36.91133,77.51244 45.68994,119.78955 0.28774,1.32292 0.5755,2.64584 0.86328,3.96875 5.04472,24.62857 6.36932,49.95271 6.38672,75.03125 v 3.07208 c -0.008,17.16293 -0.84686,33.91432 -3.25,50.92792 l -0.42188,3.09082 c -8.3885,59.86518 -30.72657,119.39125 -65.57812,168.90918 l -1.76953,2.52734 c -27.50216,37.25829 -28.69186,37.57886 -46.6875,55.90625 -9.27029,9.70149 -8.33919,8.86279 -18.54297,17.56641 l -1.56152,1.37354 c -50.46669,44.14623 -111.69093,75.23389 -177.43848,88.62646 l -2.57129,0.5459 c -25.8453,5.44889 -51.66104,6.73185 -77.99121,6.7666 l -3.30548,0.0109 c -19.50151,0.0345 -38.85912,-1.02015 -58.13202,-4.1359 l -3.26147,-0.51831 c -38.07523,-6.22531 -73.98678,-17.97362 -108.73853,-34.66919 -1.42577,-0.6719 -2.85155,-1.34378 -4.27734,-2.01563 -31.40603,-15.03288 -59.77756,-35.57746 -85.45703,-58.9375 -2.08324,-1.88209 -4.19782,-3.71849 -6.32813,-5.54687 -6.47154,-5.64955 -12.42411,-11.77008 -18.00781,-18.29297 -1.88233,-2.15286 -3.82254,-4.24311 -5.77759,-6.32983 -6.499622,-6.96362 -12.381962,-14.30412 -18.152112,-21.8772 l -1.48926,-1.93896 C 42.651988,586.64316 14.888608,523.62502 4.9315571,457.45278 l -0.57837,-3.83252 c -0.56837,-4.0087 -1.08065,-8.02083 -1.54663,-12.04248 l -0.28027,-2.41083 C 0.93136707,424.96612 0.49222707,410.87629 0.54581707,396.59243 c 0.0107,-3.38007 3e-5,-6.7596 -0.0127,-10.13965 -0.0152,-20.49359 1.25768003,-40.71456 5.02344003,-60.875 l 0.39813,-2.17682 C 12.285138,288.86427 22.641448,255.28458 37.806558,223.57778 l 1.25635,-2.6665 c 13.5751,-28.68367 31.35917,-55.06626 51.74365,-79.3335 l 2.48438,-3.04688 c 6.354383,-7.69911 13.210972,-14.82982 20.265632,-21.89062 l 2.68848,-2.69092 c 5.0306,-4.98823 10.16093,-9.78701 15.56152,-14.371574 l 2.80859,-2.414056 C 193.5172,47.62651 264.69195,15.69873 340.80657,4.5777895 l 3.43896,-0.50488 c 34.67995,-4.83209009 70.90254,-4.15104009 105.56104,0.50488 z"
     fill="#0999bd"
     id="path826"
     sodipodi:nodetypes="cccccccccccccccccccccccccccccccccccccccccccccccccccccccccccc"
     clip-path="url(#clipPath1416)"
     inkscape:path-effect="#path-effect1432"
     inkscape:original-d="m 449.80657,4.5777895 3.3418,0.42188 c 23.25044,2.9734102 46.22226,8.2483405 68.41455,15.8144505 2.34045,0.79662 4.68813,1.5692 7.03662,2.34179 18.01767,6.02136 35.44072,13.65102 52.28564,22.42432 1.9973,1.03697 4.0038,2.05457 6.01123,3.07178 26.37891,13.50531 51.10142,30.87704 72.91016,50.925776 1.32922,1.171344 2.66238,2.338244 4,3.499994 l 1.95312,1.71094 c 1.44281,1.26108 2.89127,2.5157 4.34375,3.76562 6.5615,5.74653 12.43082,11.96478 18.26124,18.43311 1.33331,1.47057 2.68564,2.92385 4.03955,4.37549 6.58263,7.08336 12.5544,14.52561 18.40234,22.21484 l 1.6416,2.14111 c 9.27824,12.14225 17.59738,24.69755 25.3584,37.85889 l 1.31006,2.21045 c 21.89355,37.25805 36.91133,77.51244 45.68994,119.78955 0.28774,1.32292 0.5755,2.64584 0.86328,3.96875 5.04472,24.62857 6.36932,49.95271 6.38672,75.03125 v 3.07208 c -0.008,17.16293 -0.84686,33.91432 -3.25,50.92792 l -0.42188,3.09082 c -8.3885,59.86518 -30.72657,119.39125 -65.57812,168.90918 l -1.76953,2.52734 c -27.50216,37.25829 -28.69186,37.57886 -46.6875,55.90625 -9.27029,9.70149 -8.33919,8.86279 -18.54297,17.56641 l -1.56152,1.37354 c -50.46669,44.14623 -111.69093,75.23389 -177.43848,88.62646 l -2.57129,0.5459 c -25.8453,5.44889 -51.66104,6.73185 -77.99121,6.7666 l -3.30548,0.0109 c -19.50151,0.0345 -38.85912,-1.02015 -58.13202,-4.1359 l -3.26147,-0.51831 c -38.07523,-6.22531 -73.98678,-17.97362 -108.73853,-34.66919 -1.42577,-0.6719 -2.85155,-1.34378 -4.27734,-2.01563 -31.40603,-15.03288 -59.77756,-35.57746 -85.45703,-58.9375 -2.08324,-1.88209 -4.19782,-3.71849 -6.32813,-5.54687 -6.47154,-5.64955 -12.42411,-11.77008 -18.00781,-18.29297 -1.88233,-2.15286 -3.82254,-4.24311 -5.77759,-6.32983 -6.499622,-6.96362 -12.381962,-14.30412 -18.152112,-21.8772 l -1.48926,-1.93896 C 42.651988,586.64316 14.888608,523.62502 4.9315571,457.45278 l -0.57837,-3.83252 c -0.56837,-4.0087 -1.08065,-8.02083 -1.54663,-12.04248 l -0.28027,-2.41083 C 0.93136707,424.96612 0.49222707,410.87629 0.54581707,396.59243 c 0.0107,-3.38007 3e-5,-6.7596 -0.0127,-10.13965 -0.0152,-20.49359 1.25768003,-40.71456 5.02344003,-60.875 l 0.39813,-2.17682 C 12.285138,288.86427 22.641448,255.28458 37.806558,223.57778 l 1.25635,-2.6665 c 13.5751,-28.68367 31.35917,-55.06626 51.74365,-79.3335 l 2.48438,-3.04688 c 6.354383,-7.69911 13.210972,-14.82982 20.265632,-21.89062 l 2.68848,-2.69092 c 5.0306,-4.98823 10.16093,-9.78701 15.56152,-14.371574 l 2.80859,-2.414056 C 193.5172,47.62651 264.69195,15.69873 340.80657,4.5777895 l 3.43896,-0.50488 c 34.67995,-4.83209009 70.90254,-4.15104009 105.56104,0.50488 z" />
  <path
     d="m 183.80657,731.57778 c 1.4835,0.42257 2.96176,0.86356 4.4375,1.3125 1.23557,0.36545 1.23557,0.36545 2.49609,0.73828 0.68192,0.31324 1.36383,0.62649 2.06641,0.94922 0.33,0.99 0.66,1.98 1,3 -4.4309,-1.20843 -6.98113,-2.51669 -10,-6 z"
     fill="#0994ae"
     id="path884" />
  <path
     d="m 762.80657,534.57778 c 0.66,0 1.32,0 2,0 0.625,1.8125 0.625,1.8125 1,4 -0.99,1.485 -0.99,1.485 -2,3 -0.66,-0.66 -1.32,-1.32 -2,-2 0.375,-2.625 0.375,-2.625 1,-5 z"
     fill="#1093c1"
     id="path892" />
  <path
     d="m 1120.1921,639.29788 q -51.2899,0 -94.7437,-18.52134 -42.74156,-19.23369 -74.79772,-50.57749 l 35.61795,-41.31682 q 26.35727,26.35728 61.26287,42.74154 35.6179,15.6719 75.51,15.6719 48.4404,0 74.7977,-20.65841 27.0697,-20.65841 27.0697,-53.42693 0,-24.93256 -11.3978,-39.8921 -10.6854,-14.95954 -29.919,-24.93257 -18.5214,-9.97303 -42.7416,-19.94605 l -66.9617,-29.20672 q -23.5079,-9.97303 -47.0157,-24.93257 -22.7955,-14.95954 -38.46739,-37.75502 -15.6719,-23.50785 -15.6719,-57.70108 0,-35.61795 19.2337,-63.39995 19.94599,-28.49437 54.85159,-44.16626 34.9056,-16.38426 79.0719,-16.38426 44.1662,0 81.2089,16.38426 37.0427,15.67189 62.6876,41.31682 l -31.3438,38.46739 q -22.7955,-20.65842 -50.5775,-32.05616 -27.782,-12.1101 -64.1123,-12.1101 -40.6045,0 -65.537,18.52133 -24.9326,17.80898 -24.9326,49.86513 0,22.08313 12.1101,36.33031 12.8225,14.24718 32.0562,23.50785 19.2337,9.26067 39.1797,17.80897 l 65.537,28.49436 q 29.2068,11.39775 52.7146,27.78201 23.5078,15.67189 37.0427,39.17974 13.5348,23.50785 13.5348,57.70108 0,37.04267 -19.9461,67.67411 -19.946,29.91907 -56.9887,47.72805 -37.0427,17.80898 -88.3325,17.80898 z"
     id="path72017"
     style="font-size:712.359px;line-height:1.25;font-family:'Source Code Pro';-inkscape-font-specification:'Source Code Pro';fill:#0999bd;stroke-width:17.809" />
  <path
     d="M 1411.2687,630.74957 V 163.44206 h 289.2177 v 49.86513 h -229.3796 v 146.74595 h 193.7617 v 50.57749 H 1471.1068 V 580.17208 H 1707.61 v 50.57749 z"
     id="path72019"
     style="font-size:712.359px;line-height:1.25;font-family:'Source Code Pro';-inkscape-font-specification:'Source Code Pro';fill:#0999bd;stroke-width:17.809" />
  <path
     d="M 1808.4867,630.74957 V 163.44206 h 72.6607 l 65.537,199.46052 22.7955,75.51005 h 2.8494 l 22.0831,-75.51005 66.2494,-199.46052 h 72.6606 v 467.30751 h -56.9887 V 397.09581 q 0,-17.09661 0.7124,-39.17974 1.4247,-22.08313 2.8494,-45.59098 2.1371,-23.50785 3.5618,-44.16626 2.1371,-21.37077 2.8495,-36.33031 h -2.1371 l -26.3573,91.18196 -66.9618,183.78862 h -42.7415 l -65.537,-183.78862 -27.0697,-91.18196 h -1.4247 q 1.4247,14.95954 2.8495,36.33031 2.137,20.65841 3.5617,44.16626 1.4248,23.50785 2.1371,45.59098 1.4247,22.08313 1.4247,39.17974 v 233.65376 z"
     id="path72021"
     style="font-size:712.359px;line-height:1.25;font-family:'Source Code Pro';-inkscape-font-specification:'Source Code Pro';fill:#0999bd;stroke-width:17.809" />
  <path
     d="M 2673.4464,630.74957 V 163.44206 h 115.4022 q 70.5235,0 118.2516,27.06964 48.4404,26.35728 73.373,78.35949 24.9325,52.00221 24.9325,126.08755 0,74.79769 -24.9325,127.51226 -24.2203,52.71456 -71.9483,80.49657 -47.7281,27.782 -116.8269,27.782 z m 59.1258,-48.44042 h 52.0022 q 53.4269,0 88.3325,-22.08312 35.618,-22.79549 53.427,-64.11232 17.8089,-42.02918 17.8089,-101.15497 0,-58.41344 -17.8089,-99.73027 -17.809,-41.31682 -53.427,-61.97523 -34.9056,-21.37077 -88.3325,-21.37077 h -52.0022 z"
     id="path72025"
     style="font-size:712.359px;line-height:1.25;font-family:'Source Code Pro';-inkscape-font-specification:'Source Code Pro';fill:#0999bd;stroke-width:17.809" />
  <path
     d="m 3680.1654,639.29788 q -34.1932,0 -63.3999,-9.97303 -28.4944,-10.68539 -49.8652,-32.05616 -21.3707,-22.08313 -33.4808,-57.70108 -11.3978,-35.61795 -11.3978,-85.48308 V 163.44206 h 59.8382 v 292.06719 q 0,48.44041 12.8224,77.64713 12.8225,28.49436 34.9056,41.31683 22.7955,12.82246 50.5775,12.82246 28.4944,0 50.5775,-12.82246 22.7955,-12.82247 35.618,-41.31683 12.8224,-29.20672 12.8224,-77.64713 V 163.44206 h 57.7011 v 290.64247 q 0,49.86513 -12.1101,85.48308 -11.3977,35.61795 -32.7685,57.70108 -20.6584,21.37077 -49.1528,32.05616 -28.4944,9.97303 -62.6876,9.97303 z"
     id="path72029"
     style="font-size:712.359px;line-height:1.25;font-family:'Source Code Pro';-inkscape-font-specification:'Source Code Pro';fill:#0999bd;stroke-width:17.809" />
  <path
     d="M 3964.1185,630.74957 V 163.44206 h 145.3212 q 47.7281,0 84.0584,12.82246 37.0426,12.1101 57.701,41.31682 21.3708,28.49436 21.3708,76.93477 0,47.0157 -21.3708,77.64714 -20.6584,30.63143 -57.701,46.30333 -36.3303,14.95954 -84.0584,14.95954 h -86.1954 v 197.32345 z m 59.1258,-245.76386 h 77.6471 q 54.8516,0 83.346,-22.08313 29.2067,-22.79549 29.2067,-68.38647 0,-45.59097 -29.2067,-64.11231 -28.4944,-19.23369 -83.346,-19.23369 h -77.6471 z m 74.0853,32.05615 47.0157,-31.34379 142.4718,245.0515 h -67.6741 z"
     id="path72031"
     style="font-size:712.359px;line-height:1.25;font-family:'Source Code Pro';-inkscape-font-specification:'Source Code Pro';fill:#0999bd;stroke-width:17.809" />
  <path
     d="M 4378.4332,630.74957 V 163.44206 h 65.537 l 149.5954,293.49191 44.8786,96.88082 h 1.4248 q -1.4248,-34.90559 -4.9865,-72.66061 -2.8495,-38.46739 -2.8495,-75.51006 V 163.44206 h 56.9887 v 467.30751 h -65.537 l -149.5954,-293.49191 -44.8786,-96.88083 h -1.4247 q 1.4247,35.61795 4.2741,72.66062 3.5618,37.04267 3.5618,73.37298 v 244.33914 z"
     id="path72033"
     style="font-size:712.359px;line-height:1.25;font-family:'Source Code Pro';-inkscape-font-specification:'Source Code Pro';fill:#0999bd;stroke-width:17.809" />
  <path
     d="m 4769.9525,630.74957 157.4313,-467.30751 h 66.9618 l 157.4313,467.30751 h -62.6876 l -81.2089,-261.43576 q -12.1101,-39.17974 -24.2202,-77.64713 -11.3978,-39.17975 -22.0832,-79.78421 h -2.8494 q -11.3977,40.60446 -22.7955,79.78421 -11.3977,38.46739 -23.5078,77.64713 l -81.9213,261.43576 z m 82.6336,-142.4718 v -47.72806 h 214.4201 v 47.72806 z"
     id="path72035"
     style="font-size:712.359px;line-height:1.25;font-family:'Source Code Pro';-inkscape-font-specification:'Source Code Pro';fill:#0999bd;stroke-width:17.809" />
  <path
     d="M 5269.7503,630.74957 V 163.44206 h 58.4134 v 416.73002 h 231.5167 v 50.57749 z"
     id="path72037"
     style="font-size:712.359px;line-height:1.25;font-family:'Source Code Pro';-inkscape-font-specification:'Source Code Pro';fill:#0999bd;stroke-width:17.809" />
  <ellipse
     style="fill:#0999bd;fill-opacity:1;stroke-width:85.4915;-inkscape-stroke:none;stop-color:#000000"
     id="path33026-3"
     cx="3282.968"
     cy="154.07779"
     rx="62.375404"
     ry="61.904839" />
  <ellipse
     style="fill:#0999bd;fill-opacity:1;stroke-width:85.4915;-inkscape-stroke:none;stop-color:#000000"
     id="path33026-3-5"
     cx="2436.8281"
     cy="156.74283"
     rx="62.375404"
     ry="61.904839" />
  <path
     style="fill:#0999bd;fill-opacity:1;stroke:none;stroke-width:1.22933px;stroke-linecap:butt;stroke-linejoin:miter;stroke-opacity:1"
     d="m 2349.6191,628.1197 h 50 l 98.4375,-343.57317 c -50.5432,-0.25287 -101.0808,0.10897 -151.6208,0.5672 l -0.5443,46.98586 53.7276,0.0148 z"
     id="path45497"
     sodipodi:nodetypes="ccccccc" />
  <path
     style="fill:#0999bd;fill-opacity:1;stroke:none;stroke-width:1.22933px;stroke-linecap:butt;stroke-linejoin:miter;stroke-opacity:1"
     d="m 3199.029,628.29785 h 50 l 98.4375,-343.57317 c -50.5432,-0.25287 -101.0808,0.10897 -151.6208,0.5672 l -0.5443,46.98586 53.7276,0.0148 z"
     id="path45497-6"
     sodipodi:nodetypes="ccccccc" />
  <ellipse
     style="fill:#000000;fill-opacity:0;stroke:none;stroke-width:3.77953;-inkscape-stroke:none;stop-color:#000000"
     id="path73785"
     cx="407.20181"
     cy="333.69098"
     rx="211.54817"
     ry="205.37154" />
  <path
     d="m -241.80071,541.62505 3.3418,0.42188 c 23.25044,2.97341 46.22226,8.24834 68.41455,15.81445 2.34045,0.79662 4.68813,1.5692 7.03662,2.34179 18.01767,6.02136 35.44072,13.65102 52.28564,22.42432 1.9973,1.03697 4.0038,2.05457 6.01123,3.07178 26.378909,13.50531 51.101419,30.87704 72.910159,50.92577 1.32922,1.17135 2.66238,2.33825 4,3.5 l 1.95312,1.71094 c 1.44281,1.26108 2.89127,2.5157 4.34375,3.76562 6.5615,5.74653 12.4308199,11.96478 18.2612399,18.43311 1.33331,1.47057 2.68564004,2.92385 4.03955004,4.37549 6.58262996,7.08336 12.55440006,14.52561 18.40234006,22.21484 l 1.6416,2.14111 c 9.27824,12.14225 17.59738,24.69755 25.3584,37.85889 l 1.31006,2.21045 c 21.89355,37.25805 36.91133,77.51244 45.68994,119.78955 0.28774,1.32292 0.5755,2.64584 0.86328,3.96875 5.04472,24.62857 6.369321,49.95271 6.386721,75.03125 v 3.07208 c -0.008,17.16293 -0.846861,33.91432 -3.250001,50.92792 l -0.42188,3.09082 c -8.3885,59.86514 -30.72657,119.39124 -65.57812,168.90914 l -1.76953,2.5274 c -27.5021601,37.2583 -28.69186006,37.5788 -46.6875,55.9062 -9.27029,9.7015 -8.33919,8.8628 -18.54297,17.5664 l -1.56152,1.3736 c -50.46669,44.1462 -111.690929,75.2339 -177.438479,88.6264 l -2.57129,0.5459 c -25.8453,5.4489 -51.66104,6.7319 -77.99121,6.7666 l -3.30548,0.011 c -19.50151,0.034 -38.85912,-1.0201 -58.13202,-4.1359 l -3.26147,-0.5183 c -38.07523,-6.2253 -73.98678,-17.9736 -108.73853,-34.6692 -1.42577,-0.6719 -2.85155,-1.3437 -4.27734,-2.0156 -31.40603,-15.0329 -59.77756,-35.5774 -85.45703,-58.9375 -2.08324,-1.8821 -4.19782,-3.7185 -6.32813,-5.5469 -6.47154,-5.6495 -12.42411,-11.77 -18.00781,-18.2929 -1.88233,-2.1529 -3.82254,-4.2431 -5.77759,-6.3299 -6.49962,-6.9636 -12.38196,-14.3041 -18.15211,-21.8772 l -1.48926,-1.9389 c -40.66531,-52.9957 -68.42869,-116.0138 -78.38574,-182.18606 l -0.57837,-3.83252 c -0.56837,-4.0087 -1.08065,-8.02083 -1.54663,-12.04248 l -0.28027,-2.41083 c -1.59492,-14.20084 -2.03406,-28.29067 -1.98047,-42.57453 0.0107,-3.38007 3e-5,-6.7596 -0.0127,-10.13965 -0.0152,-20.49359 1.25768,-40.71456 5.02344,-60.875 l 0.39813,-2.17682 c 6.33045,-34.53669 16.68676,-68.11638 31.85187,-99.82318 l 1.25635,-2.6665 c 13.5751,-28.68367 31.35917,-55.06626 51.74365,-79.33349 l 2.48438,-3.04688 c 6.35438,-7.69911 13.21097,-14.82982 20.26563,-21.89062 l 2.68848,-2.69092 c 5.0306,-4.98823 10.16093,-9.78701 15.56152,-14.37158 l 2.80859,-2.41405 c 58.90204,-49.53722 130.07679,-81.465 206.19141,-92.58594 l 3.43896,-0.50488 c 34.67995,-4.83209 70.90254,-4.15104 105.56104,0.50488 z"
     fill="#0999bd"
     id="path826-9"
     sodipodi:nodetypes="cccccccccccccccccccccccccccccccccccccccccccccccccccccccccccc"
     clip-path="url(#clipPath73945)"
     transform="translate(691.60727,-537.0473)"
     inkscape:original-d="m -241.80071,541.62505 3.3418,0.42188 c 23.25044,2.97341 46.22226,8.24834 68.41455,15.81445 2.34045,0.79662 4.68813,1.5692 7.03662,2.34179 18.01767,6.02136 35.44072,13.65102 52.28564,22.42432 1.9973,1.03697 4.0038,2.05457 6.01123,3.07178 26.378909,13.50531 51.101419,30.87704 72.910159,50.92577 1.32922,1.17135 2.66238,2.33825 4,3.5 l 1.95312,1.71094 c 1.44281,1.26108 2.89127,2.5157 4.34375,3.76562 6.5615,5.74653 12.4308199,11.96478 18.2612399,18.43311 1.33331,1.47057 2.68564004,2.92385 4.03955004,4.37549 6.58262996,7.08336 12.55440006,14.52561 18.40234006,22.21484 l 1.6416,2.14111 c 9.27824,12.14225 17.59738,24.69755 25.3584,37.85889 l 1.31006,2.21045 c 21.89355,37.25805 36.91133,77.51244 45.68994,119.78955 0.28774,1.32292 0.5755,2.64584 0.86328,3.96875 5.04472,24.62857 6.369321,49.95271 6.386721,75.03125 v 3.07208 c -0.008,17.16293 -0.846861,33.91432 -3.250001,50.92792 l -0.42188,3.09082 c -8.3885,59.86514 -30.72657,119.39124 -65.57812,168.90914 l -1.76953,2.5274 c -27.5021601,37.2583 -28.69186006,37.5788 -46.6875,55.9062 -9.27029,9.7015 -8.33919,8.8628 -18.54297,17.5664 l -1.56152,1.3736 c -50.46669,44.1462 -111.690929,75.2339 -177.438479,88.6264 l -2.57129,0.5459 c -25.8453,5.4489 -51.66104,6.7319 -77.99121,6.7666 l -3.30548,0.011 c -19.50151,0.034 -38.85912,-1.0201 -58.13202,-4.1359 l -3.26147,-0.5183 c -38.07523,-6.2253 -73.98678,-17.9736 -108.73853,-34.6692 -1.42577,-0.6719 -2.85155,-1.3437 -4.27734,-2.0156 -31.40603,-15.0329 -59.77756,-35.5774 -85.45703,-58.9375 -2.08324,-1.8821 -4.19782,-3.7185 -6.32813,-5.5469 -6.47154,-5.6495 -12.42411,-11.77 -18.00781,-18.2929 -1.88233,-2.1529 -3.82254,-4.2431 -5.77759,-6.3299 -6.49962,-6.9636 -12.38196,-14.3041 -18.15211,-21.8772 l -1.48926,-1.9389 c -40.66531,-52.9957 -68.42869,-116.0138 -78.38574,-182.18606 l -0.57837,-3.83252 c -0.56837,-4.0087 -1.08065,-8.02083 -1.54663,-12.04248 l -0.28027,-2.41083 c -1.59492,-14.20084 -2.03406,-28.29067 -1.98047,-42.57453 0.0107,-3.38007 3e-5,-6.7596 -0.0127,-10.13965 -0.0152,-20.49359 1.25768,-40.71456 5.02344,-60.875 l 0.39813,-2.17682 c 6.33045,-34.53669 16.68676,-68.11638 31.85187,-99.82318 l 1.25635,-2.6665 c 13.5751,-28.68367 31.35917,-55.06626 51.74365,-79.33349 l 2.48438,-3.04688 c 6.35438,-7.69911 13.21097,-14.82982 20.26563,-21.89062 l 2.68848,-2.69092 c 5.0306,-4.98823 10.16093,-9.78701 15.56152,-14.37158 l 2.80859,-2.41405 c 58.90204,-49.53722 130.07679,-81.465 206.19141,-92.58594 l 3.43896,-0.50488 c 34.67995,-4.83209 70.90254,-4.15104 105.56104,0.50488 z"
     inkscape:path-effect="#path-effect73949" />
</svg>
